<svg xmlns="http://www.w3.org/2000/svg" xmlns:xlink="http://www.w3.org/1999/xlink" version="1.1" width="2560" height="1440" viewBox="0 0 2560 1440" xml:space="preserve">
<desc>Created with Fabric.js 3.5.0</desc>
<defs>
</defs>
<rect x="0" y="0" width="100%" height="100%" fill="#ffffff"/>
<g transform="matrix(3.9296 0.6325 -0.6325 3.9296 361.8425 1465.4289)" id="238031">
<path style="stroke: none; stroke-width: 1; stroke-dasharray: none; stroke-linecap: butt; stroke-dashoffset: 0; stroke-linejoin: miter; stroke-miterlimit: 4; is-custom-font: none; font-file-url: none; fill: rgb(71,75,255); fill-rule: nonzero; opacity: 1;" vector-effect="non-scaling-stroke" transform=" translate(-247.5087, -230.0304)" d="M 368 263.5 Q 314 287 305.5 326 Q 297 365 262.5 346 Q 228 327 173 354 Q 118 381 100.5 333.5 Q 83 286 89 241.5 Q 95 197 98 138.5 Q 101 80 162 99.5 Q 223 119 249 140.5 Q 275 162 303 171.5 Q 331 181 376.5 210.5 Q 422 240 368 263.5 Z" stroke-linecap="round"/>
</g>
<g transform="matrix(2.1909 -2.4887 2.4887 2.1909 2509.8751 -1.1459)" id="913493">
<path style="stroke: none; stroke-width: 1; stroke-dasharray: none; stroke-linecap: butt; stroke-dashoffset: 0; stroke-linejoin: miter; stroke-miterlimit: 4; is-custom-font: none; font-file-url: none; fill: rgb(71,75,255); fill-rule: nonzero; opacity: 1;" vector-effect="non-scaling-stroke" transform=" translate(-234.1908, -220.3866)" d="M 409 299.5 Q 426 359 353 343 Q 280 327 249.5 358 Q 219 389 151.5 404.5 Q 84 420 64.5 358.5 Q 45 297 66.5 246 Q 88 195 101.5 145.5 Q 115 96 162 60.5 Q 209 25 271.5 30 Q 334 35 326.5 112 Q 319 189 355.5 214.5 Q 392 240 409 299.5 Z" stroke-linecap="round"/>
</g>
</svg>