<svg xmlns="http://www.w3.org/2000/svg" xmlns:xlink="http://www.w3.org/1999/xlink" version="1.1" width="512" height="800" viewBox="0 0 512 800" xml:space="preserve">
<desc>Created with Fabric.js 3.5.0</desc>
<defs>
</defs>
<rect x="0" y="0" width="100%" height="100%" fill="#ffffff"/>
<g transform="matrix(-1.0124 0.419 -0.419 -1.0124 550.0638 39.309)" id="396008">
<path style="stroke: none; stroke-width: 1; stroke-dasharray: none; stroke-linecap: butt; stroke-dashoffset: 0; stroke-linejoin: miter; stroke-miterlimit: 4; is-custom-font: none; font-file-url: none; fill: rgb(71,75,255); fill-rule: nonzero; opacity: 1;" vector-effect="non-scaling-stroke" transform=" translate(-234.1908, -220.3866)" d="M 409 299.5 Q 426 359 353 343 Q 280 327 249.5 358 Q 219 389 151.5 404.5 Q 84 420 64.5 358.5 Q 45 297 66.5 246 Q 88 195 101.5 145.5 Q 115 96 162 60.5 Q 209 25 271.5 30 Q 334 35 326.5 112 Q 319 189 355.5 214.5 Q 392 240 409 299.5 Z" stroke-linecap="round"/>
</g>
<g transform="matrix(1.0795 -0.2774 0.2774 1.0795 -25.4852 739.6212)" id="979839">
<path style="stroke: none; stroke-width: 1; stroke-dasharray: none; stroke-linecap: butt; stroke-dashoffset: 0; stroke-linejoin: miter; stroke-miterlimit: 4; is-custom-font: none; font-file-url: none; fill: rgb(71,75,255); fill-rule: nonzero; opacity: 1;" vector-effect="non-scaling-stroke" transform=" translate(-234.1908, -220.3866)" d="M 409 299.5 Q 426 359 353 343 Q 280 327 249.5 358 Q 219 389 151.5 404.5 Q 84 420 64.5 358.5 Q 45 297 66.5 246 Q 88 195 101.5 145.5 Q 115 96 162 60.5 Q 209 25 271.5 30 Q 334 35 326.5 112 Q 319 189 355.5 214.5 Q 392 240 409 299.5 Z" stroke-linecap="round"/>
</g>
</svg>