<?xml version="1.0" encoding="UTF-8"?>
<svg xmlns="http://www.w3.org/2000/svg" xmlns:xlink="http://www.w3.org/1999/xlink" width="891px" height="745px" viewBox="0 0 668 559" version="1.1">
<g id="surface1">
<path style=" stroke:none;fill-rule:nonzero;fill:rgb(94.901961%,94.901961%,94.901961%);fill-opacity:1;" d="M 577.765625 545.640625 C 577.765625 538.179688 459.613281 532.132812 313.863281 532.132812 C 168.117188 532.132812 49.964844 538.179688 49.964844 545.640625 C 49.964844 553.097656 168.117188 559.144531 313.863281 559.144531 C 459.613281 559.144531 577.765625 553.097656 577.765625 545.640625 Z M 577.765625 545.640625 "/>
<path style=" stroke:none;fill-rule:nonzero;fill:rgb(24.705882%,23.921569%,33.72549%);fill-opacity:1;" d="M 468.046875 129.769531 L 465.050781 129.769531 L 465.050781 47.574219 C 465.050781 21.300781 443.769531 0 417.515625 0 L 243.515625 0 C 217.265625 0 195.984375 21.300781 195.984375 47.574219 L 195.984375 498.503906 C 195.984375 524.777344 217.265625 546.078125 243.515625 546.078125 L 417.515625 546.078125 C 443.769531 546.078125 465.050781 524.777344 465.050781 498.503906 L 465.050781 188.277344 L 468.046875 188.277344 Z M 468.046875 129.769531 "/>
<path style=" stroke:none;fill-rule:nonzero;fill:rgb(100%,100%,100%);fill-opacity:1;" d="M 454.933594 47.90625 L 454.933594 498.171875 C 454.933594 517.796875 439.039062 533.703125 419.433594 533.703125 L 244.597656 533.703125 C 224.992188 533.703125 209.101562 517.796875 209.097656 498.171875 L 209.097656 47.90625 C 209.101562 28.28125 224.992188 12.375 244.597656 12.375 L 265.808594 12.375 C 263.691406 17.582031 264.300781 23.5 267.433594 28.164062 C 270.566406 32.824219 275.808594 35.625 281.425781 35.628906 L 381.109375 35.628906 C 386.722656 35.625 391.96875 32.824219 395.097656 28.164062 C 398.230469 23.5 398.839844 17.582031 396.722656 12.375 L 419.433594 12.375 C 439.039062 12.375 454.933594 28.28125 454.933594 47.90625 Z M 454.933594 47.90625 "/>
<path style=" stroke:none;fill-rule:nonzero;fill:rgb(27.843137%,29.411765%,100%);fill-opacity:1;" d="M 398.609375 242.058594 C 397.445312 242.667969 396.265625 243.242188 395.0625 243.785156 C 393.96875 244.28125 392.855469 244.746094 391.726562 245.179688 C 391.3125 245.335938 390.894531 245.496094 390.472656 245.652344 C 387.15625 246.859375 383.746094 247.796875 380.277344 248.464844 C 378.5625 248.804688 376.820312 249.070312 375.058594 249.261719 C 373.605469 249.425781 372.136719 249.542969 370.652344 249.613281 C 369.59375 249.667969 368.539062 249.6875 367.472656 249.6875 C 363.257812 249.691406 359.050781 249.296875 354.90625 248.511719 C 353.828125 248.316406 352.769531 248.082031 351.714844 247.828125 C 346.601562 246.601562 341.652344 244.773438 336.96875 242.382812 C 336.546875 242.171875 336.128906 241.945312 335.707031 241.726562 C 335.085938 241.398438 334.476562 241.054688 333.871094 240.691406 C 334.164062 240.289062 334.476562 239.890625 334.800781 239.5 C 341.894531 230.699219 352.394531 225.335938 363.679688 224.75 C 374.960938 224.164062 385.960938 228.40625 393.929688 236.421875 C 395.296875 237.796875 396.566406 239.265625 397.722656 240.820312 C 398.03125 241.226562 398.324219 241.636719 398.609375 242.058594 Z M 398.609375 242.058594 "/>
<path style=" stroke:none;fill-rule:nonzero;fill:rgb(18.431373%,18.039216%,25.490196%);fill-opacity:1;" d="M 401.890625 176.152344 C 401.890625 194.347656 387.152344 209.097656 368.96875 209.097656 C 350.789062 209.097656 336.050781 194.347656 336.050781 176.152344 C 336.050781 157.957031 350.789062 143.203125 368.96875 143.203125 C 387.152344 143.203125 401.890625 157.957031 401.890625 176.152344 Z M 401.890625 176.152344 "/>
<path style=" stroke:none;fill-rule:nonzero;fill:rgb(62.745098%,38.039216%,41.568627%);fill-opacity:1;" d="M 387.472656 175.867188 C 393.960938 187.75 389.597656 202.648438 377.726562 209.144531 C 365.851562 215.640625 350.964844 211.273438 344.472656 199.390625 C 337.984375 187.507812 342.347656 172.609375 354.21875 166.113281 C 366.09375 159.617188 380.980469 163.984375 387.472656 175.867188 Z M 387.472656 175.867188 "/>
<path style=" stroke:none;fill-rule:nonzero;fill:rgb(18.431373%,18.039216%,25.490196%);fill-opacity:1;" d="M 391.71875 172.203125 C 386.121094 176.066406 379.472656 178.121094 372.671875 178.09375 C 375.097656 179.777344 377.859375 180.914062 380.769531 181.425781 C 371.726562 183.367188 362.382812 183.421875 353.320312 181.582031 C 351.304688 181.257812 349.363281 180.589844 347.574219 179.605469 C 345.773438 178.601562 344.484375 176.875 344.027344 174.859375 C 343.425781 171.417969 346.105469 168.289062 348.890625 166.179688 C 357.53125 159.742188 368.597656 157.53125 379.042969 160.152344 C 382.410156 161.023438 385.785156 162.492188 387.972656 165.199219 C 390.160156 167.90625 390.808594 172.082031 388.726562 174.867188 Z M 391.71875 172.203125 "/>
<path style=" stroke:none;fill-rule:nonzero;fill:rgb(24.705882%,23.921569%,33.72549%);fill-opacity:1;" d="M 367.472656 114.628906 C 337.234375 114.625 310.683594 134.757812 302.511719 163.898438 C 294.335938 193.035156 306.53125 224.058594 332.355469 239.808594 L 332.792969 240.0625 C 333.152344 240.28125 333.511719 240.492188 333.871094 240.691406 C 334.476562 241.054688 335.085938 241.398438 335.707031 241.726562 C 336.128906 241.945312 336.546875 242.171875 336.96875 242.382812 C 341.652344 244.773438 346.601562 246.601562 351.714844 247.828125 C 352.769531 248.082031 353.828125 248.316406 354.90625 248.511719 C 359.050781 249.296875 363.257812 249.691406 367.472656 249.6875 C 368.539062 249.6875 369.59375 249.667969 370.652344 249.613281 C 372.136719 249.546875 373.605469 249.429688 375.058594 249.261719 C 376.820312 249.066406 378.5625 248.800781 380.277344 248.464844 C 383.746094 247.796875 387.15625 246.859375 390.476562 245.652344 C 390.894531 245.496094 391.3125 245.335938 391.726562 245.179688 C 392.859375 244.746094 393.96875 244.28125 395.0625 243.785156 C 396.261719 243.242188 397.445312 242.667969 398.609375 242.058594 C 410.28125 235.941406 419.925781 226.566406 426.378906 215.070312 C 426.410156 215.007812 426.445312 214.949219 426.476562 214.890625 C 429.917969 208.707031 432.359375 202.019531 433.710938 195.074219 C 437.550781 175.273438 432.351562 154.792969 419.535156 139.226562 C 406.71875 123.660156 387.625 114.640625 367.472656 114.628906 Z M 425.246094 214.011719 C 425.1875 214.117188 425.132812 214.222656 425.074219 214.320312 C 418.75 225.644531 409.238281 234.863281 397.722656 240.820312 C 396.578125 241.421875 395.410156 241.984375 394.222656 242.507812 C 393.242188 242.953125 392.238281 243.371094 391.222656 243.761719 C 390.796875 243.925781 390.363281 244.09375 389.925781 244.242188 C 387.058594 245.289062 384.121094 246.132812 381.132812 246.761719 C 378.917969 247.234375 376.675781 247.589844 374.421875 247.820312 C 373.035156 247.972656 371.625 248.078125 370.210938 248.128906 C 369.300781 248.167969 368.386719 248.1875 367.472656 248.1875 C 363.394531 248.195312 359.320312 247.8125 355.3125 247.054688 C 352.875 246.605469 350.464844 246.015625 348.09375 245.285156 C 344.480469 244.167969 340.972656 242.746094 337.605469 241.03125 C 337.214844 240.828125 336.824219 240.625 336.441406 240.414062 C 335.894531 240.121094 335.339844 239.824219 334.800781 239.5 C 334.394531 239.273438 333.992188 239.035156 333.59375 238.792969 C 333.359375 238.660156 333.128906 238.515625 332.894531 238.375 C 302.160156 219.484375 292.257812 179.402344 310.660156 148.351562 C 329.058594 117.304688 368.953125 106.78125 400.253906 124.71875 C 431.558594 142.652344 442.683594 182.410156 425.246094 214.011719 Z M 425.246094 214.011719 "/>
<path style=" stroke:none;fill-rule:nonzero;fill:rgb(18.431373%,18.039216%,25.490196%);fill-opacity:1;" d="M 352.296875 143.660156 C 351.945312 139.929688 347.382812 137.636719 343.8125 138.761719 C 340.246094 139.886719 337.902344 143.484375 337.195312 147.160156 C 336.507812 150.289062 337.089844 153.5625 338.816406 156.257812 C 340.621094 158.855469 343.9375 160.476562 347.027344 159.816406 C 350.554688 159.0625 353 155.613281 353.699219 152.070312 C 354.398438 148.53125 353.707031 144.878906 353.011719 141.332031 Z M 352.296875 143.660156 "/>
<path style=" stroke:none;fill-rule:nonzero;fill:rgb(18.431373%,18.039216%,25.490196%);fill-opacity:1;" d="M 402.515625 148.984375 C 402.164062 145.257812 397.597656 142.960938 394.03125 144.085938 C 390.464844 145.214844 388.121094 148.808594 387.414062 152.484375 C 386.722656 155.613281 387.308594 158.886719 389.035156 161.582031 C 390.839844 164.179688 394.152344 165.800781 397.246094 165.140625 C 400.773438 164.390625 403.21875 160.941406 403.917969 157.398438 C 404.617188 153.855469 403.921875 150.203125 403.230469 146.660156 Z M 402.515625 148.984375 "/>
<path style=" stroke:none;fill-rule:nonzero;fill:rgb(100%,100%,100%);fill-opacity:1;" d="M 250.84375 209.148438 C 249.898438 209.148438 249 208.746094 248.363281 208.050781 L 211.164062 167.429688 C 210.308594 166.5 209.105469 165.972656 207.84375 165.96875 L 11.253906 165.96875 C 5.039062 165.960938 0.0078125 160.925781 0 154.707031 L 0 83.753906 C 0.0078125 77.539062 5.039062 72.5 11.253906 72.492188 L 265.953125 72.492188 C 272.164062 72.5 277.195312 77.539062 277.203125 83.753906 L 277.203125 154.707031 C 277.195312 160.925781 272.164062 165.960938 265.953125 165.96875 L 258.730469 165.96875 C 256.246094 165.972656 254.230469 167.988281 254.230469 170.476562 L 254.230469 205.765625 C 254.234375 207.160156 253.378906 208.414062 252.078125 208.914062 C 251.683594 209.066406 251.265625 209.148438 250.84375 209.148438 Z M 250.84375 209.148438 "/>
<path style=" stroke:none;fill-rule:nonzero;fill:rgb(24.705882%,23.921569%,33.72549%);fill-opacity:1;" d="M 250.84375 209.148438 C 249.898438 209.148438 249 208.746094 248.363281 208.050781 L 211.164062 167.429688 C 210.308594 166.5 209.105469 165.972656 207.84375 165.96875 L 11.253906 165.96875 C 5.039062 165.960938 0.0078125 160.925781 0 154.707031 L 0 83.753906 C 0.0078125 77.539062 5.039062 72.5 11.253906 72.492188 L 265.953125 72.492188 C 272.164062 72.5 277.195312 77.539062 277.203125 83.753906 L 277.203125 154.707031 C 277.195312 160.925781 272.164062 165.960938 265.953125 165.96875 L 258.730469 165.96875 C 256.246094 165.972656 254.230469 167.988281 254.230469 170.476562 L 254.230469 205.765625 C 254.234375 207.160156 253.378906 208.414062 252.078125 208.914062 C 251.683594 209.066406 251.265625 209.148438 250.84375 209.148438 Z M 11.253906 73.992188 C 5.867188 74 1.503906 78.367188 1.5 83.753906 L 1.5 154.707031 C 1.503906 160.097656 5.867188 164.464844 11.253906 164.46875 L 207.84375 164.46875 C 209.527344 164.472656 211.128906 165.175781 212.265625 166.417969 L 249.46875 207.035156 C 249.992188 207.605469 250.8125 207.796875 251.535156 207.515625 C 252.253906 207.234375 252.730469 206.539062 252.730469 205.765625 L 252.730469 170.476562 C 252.734375 167.160156 255.417969 164.472656 258.730469 164.46875 L 265.953125 164.46875 C 271.335938 164.464844 275.699219 160.097656 275.703125 154.707031 L 275.703125 83.753906 C 275.699219 78.367188 271.335938 74 265.953125 73.992188 Z M 11.253906 73.992188 "/>
<path style=" stroke:none;fill-rule:nonzero;fill:rgb(27.843137%,29.411765%,100%);fill-opacity:1;" d="M 37.449219 93.9375 C 37.449219 99.378906 33.039062 103.792969 27.601562 103.792969 C 22.164062 103.792969 17.753906 99.378906 17.753906 93.9375 C 17.753906 88.496094 22.164062 84.082031 27.601562 84.082031 C 33.039062 84.082031 37.449219 88.496094 37.449219 93.9375 Z M 37.449219 93.9375 "/>
<path style=" stroke:none;fill-rule:nonzero;fill:rgb(90.196078%,90.196078%,90.196078%);fill-opacity:1;" d="M 254.464844 148.464844 L 22.742188 148.464844 C 20.863281 148.46875 19.125 147.46875 18.1875 145.839844 C 17.246094 144.214844 17.246094 142.207031 18.1875 140.582031 C 19.125 138.953125 20.863281 137.953125 22.742188 137.953125 L 254.464844 137.953125 C 257.363281 137.957031 259.707031 140.308594 259.707031 143.210938 C 259.707031 146.109375 257.363281 148.464844 254.464844 148.464844 Z M 254.464844 148.464844 "/>
<path style=" stroke:none;fill-rule:nonzero;fill:rgb(90.196078%,90.196078%,90.196078%);fill-opacity:1;" d="M 178.972656 126.128906 L 22.742188 126.128906 C 20.863281 126.132812 19.125 125.128906 18.1875 123.503906 C 17.246094 121.875 17.246094 119.871094 18.1875 118.242188 C 19.125 116.617188 20.863281 115.613281 22.742188 115.617188 L 178.972656 115.617188 C 181.875 115.617188 184.226562 117.96875 184.226562 120.875 C 184.226562 123.777344 181.875 126.128906 178.972656 126.128906 Z M 178.972656 126.128906 "/>
<path style=" stroke:none;fill-rule:nonzero;fill:rgb(100%,100%,100%);fill-opacity:1;" d="M 416.144531 449.773438 C 414.84375 449.273438 413.988281 448.019531 413.992188 446.625 L 413.992188 411.332031 C 413.988281 408.847656 411.976562 406.832031 409.492188 406.828125 L 402.269531 406.828125 C 396.058594 406.820312 391.023438 401.78125 391.015625 395.566406 L 391.015625 324.613281 C 391.023438 318.394531 396.058594 313.355469 402.269531 313.351562 L 656.96875 313.351562 C 663.179688 313.355469 668.214844 318.394531 668.222656 324.613281 L 668.222656 395.566406 C 668.214844 401.78125 663.179688 406.820312 656.96875 406.828125 L 460.378906 406.828125 C 459.117188 406.828125 457.914062 407.359375 457.058594 408.289062 L 419.855469 448.90625 C 419.222656 449.605469 418.320312 450.003906 417.378906 450.003906 C 416.957031 450.003906 416.535156 449.925781 416.144531 449.773438 Z M 416.144531 449.773438 "/>
<path style=" stroke:none;fill-rule:nonzero;fill:rgb(24.705882%,23.921569%,33.72549%);fill-opacity:1;" d="M 416.144531 449.773438 C 414.84375 449.273438 413.988281 448.019531 413.992188 446.625 L 413.992188 411.332031 C 413.988281 408.847656 411.976562 406.832031 409.492188 406.828125 L 402.269531 406.828125 C 396.058594 406.820312 391.023438 401.78125 391.015625 395.566406 L 391.015625 324.613281 C 391.023438 318.394531 396.058594 313.355469 402.269531 313.351562 L 656.96875 313.351562 C 663.179688 313.355469 668.214844 318.394531 668.222656 324.613281 L 668.222656 395.566406 C 668.214844 401.78125 663.179688 406.820312 656.96875 406.828125 L 460.378906 406.828125 C 459.117188 406.828125 457.914062 407.359375 457.058594 408.289062 L 419.855469 448.90625 C 419.222656 449.605469 418.320312 450.003906 417.378906 450.003906 C 416.957031 450.003906 416.535156 449.925781 416.144531 449.773438 Z M 402.269531 314.851562 C 396.886719 314.855469 392.523438 319.222656 392.515625 324.613281 L 392.515625 395.566406 C 392.523438 400.953125 396.886719 405.320312 402.269531 405.328125 L 409.492188 405.328125 C 412.804688 405.332031 415.488281 408.015625 415.492188 411.332031 L 415.492188 446.625 C 415.492188 447.398438 415.96875 448.09375 416.6875 448.375 C 417.410156 448.652344 418.226562 448.464844 418.75 447.890625 L 455.953125 407.273438 C 457.089844 406.035156 458.695312 405.328125 460.378906 405.328125 L 656.96875 405.328125 C 662.351562 405.320312 666.714844 400.953125 666.722656 395.566406 L 666.722656 324.613281 C 666.714844 319.222656 662.351562 314.855469 656.96875 314.851562 Z M 402.269531 314.851562 "/>
<path style=" stroke:none;fill-rule:nonzero;fill:rgb(27.843137%,29.411765%,100%);fill-opacity:1;" d="M 336.757812 471.742188 C 315.453125 485.394531 288.273438 485.828125 266.546875 472.863281 C 268.417969 469.371094 270.792969 466.171875 273.59375 463.371094 C 282.347656 454.566406 294.683594 450.320312 306.992188 451.875 C 319.304688 453.425781 330.203125 460.601562 336.503906 471.300781 C 336.585938 471.445312 336.675781 471.59375 336.757812 471.742188 Z M 336.757812 471.742188 "/>
<path style=" stroke:none;fill-rule:nonzero;fill:rgb(18.431373%,18.039216%,25.490196%);fill-opacity:1;" d="M 331.859375 402.695312 C 331.859375 421.011719 317.023438 435.863281 298.71875 435.863281 C 280.417969 435.863281 265.582031 421.011719 265.582031 402.695312 C 265.582031 384.378906 280.417969 369.53125 298.71875 369.53125 C 317.023438 369.53125 331.859375 384.378906 331.859375 402.695312 Z M 331.859375 402.695312 "/>
<path style=" stroke:none;fill-rule:nonzero;fill:rgb(100%,72.156863%,72.156863%);fill-opacity:1;" d="M 313.566406 392.589844 C 325.519531 399.128906 329.914062 414.128906 323.378906 426.089844 C 316.84375 438.050781 301.859375 442.449219 289.90625 435.910156 C 277.953125 429.371094 273.5625 414.371094 280.09375 402.410156 C 286.628906 390.445312 301.613281 386.050781 313.566406 392.589844 Z M 313.566406 392.589844 "/>
<path style=" stroke:none;fill-rule:nonzero;fill:rgb(18.431373%,18.039216%,25.490196%);fill-opacity:1;" d="M 275.820312 398.722656 C 281.457031 402.609375 288.144531 404.679688 294.992188 404.652344 C 292.550781 406.347656 289.769531 407.492188 286.84375 408.007812 C 295.945312 409.960938 305.351562 410.015625 314.472656 408.164062 C 316.5 407.835938 318.457031 407.164062 320.257812 406.175781 C 322.070312 405.160156 323.367188 403.421875 323.828125 401.394531 C 324.433594 397.929688 321.734375 394.78125 318.929688 392.660156 C 310.234375 386.179688 299.09375 383.953125 288.578125 386.589844 C 285.1875 387.464844 281.792969 388.949219 279.589844 391.671875 C 277.386719 394.398438 276.734375 398.597656 278.832031 401.40625 Z M 275.820312 398.722656 "/>
<path style=" stroke:none;fill-rule:nonzero;fill:rgb(24.705882%,23.921569%,33.72549%);fill-opacity:1;" d="M 300.75 483.042969 C 267.195312 483.035156 238.753906 458.34375 233.996094 425.105469 C 229.238281 391.863281 249.617188 360.179688 281.816406 350.746094 C 314.019531 341.308594 348.25 356.996094 362.15625 387.554688 C 376.0625 418.117188 365.410156 454.257812 337.164062 472.375 C 326.296875 479.347656 313.65625 483.050781 300.75 483.042969 Z M 300.75 349.484375 C 264.304688 349.480469 234.761719 379.046875 234.761719 415.519531 C 234.757812 451.988281 264.300781 481.558594 300.742188 481.554688 C 337.1875 481.554688 366.726562 451.984375 366.722656 415.511719 C 366.683594 379.0625 337.167969 349.523438 300.75 349.484375 Z M 300.75 349.484375 "/>
<path style=" stroke:none;fill-rule:nonzero;fill:rgb(27.843137%,29.411765%,100%);fill-opacity:1;" d="M 432.550781 334.042969 C 432.550781 339.488281 428.140625 343.898438 422.703125 343.898438 C 417.265625 343.898438 412.855469 339.488281 412.855469 334.042969 C 412.855469 328.601562 417.265625 324.191406 422.703125 324.191406 C 428.140625 324.191406 432.550781 328.601562 432.550781 334.042969 Z M 432.550781 334.042969 "/>
<path style=" stroke:none;fill-rule:nonzero;fill:rgb(90.196078%,90.196078%,90.196078%);fill-opacity:1;" d="M 649.566406 388.574219 L 417.84375 388.574219 C 415.964844 388.574219 414.230469 387.574219 413.289062 385.949219 C 412.351562 384.320312 412.351562 382.316406 413.289062 380.6875 C 414.230469 379.0625 415.964844 378.058594 417.84375 378.0625 L 649.566406 378.0625 C 652.464844 378.0625 654.816406 380.414062 654.816406 383.316406 C 654.816406 386.21875 652.464844 388.574219 649.566406 388.574219 Z M 649.566406 388.574219 "/>
<path style=" stroke:none;fill-rule:nonzero;fill:rgb(90.196078%,90.196078%,90.196078%);fill-opacity:1;" d="M 574.074219 366.238281 L 417.84375 366.238281 C 415.964844 366.238281 414.230469 365.238281 413.289062 363.609375 C 412.351562 361.984375 412.351562 359.976562 413.289062 358.351562 C 414.230469 356.722656 415.964844 355.722656 417.84375 355.726562 L 574.074219 355.726562 C 576.972656 355.726562 579.320312 358.082031 579.320312 360.980469 C 579.320312 363.882812 576.972656 366.234375 574.074219 366.238281 Z M 574.074219 366.238281 "/>
<path style=" stroke:none;fill-rule:nonzero;fill:rgb(94.901961%,94.901961%,94.901961%);fill-opacity:1;" d="M 434.199219 454.449219 C 434.199219 453.320312 425.972656 452.410156 415.828125 452.410156 C 405.679688 452.410156 397.457031 453.320312 397.457031 454.449219 C 397.457031 455.574219 405.679688 456.488281 415.828125 456.488281 C 425.972656 456.488281 434.199219 455.574219 434.199219 454.449219 Z M 434.199219 454.449219 "/>
<path style=" stroke:none;fill-rule:nonzero;fill:rgb(94.901961%,94.901961%,94.901961%);fill-opacity:1;" d="M 270.007812 214.339844 C 270.007812 213.214844 261.785156 212.300781 251.636719 212.300781 C 241.492188 212.300781 233.265625 213.214844 233.265625 214.339844 C 233.265625 215.46875 241.492188 216.382812 251.636719 216.382812 C 261.785156 216.382812 270.007812 215.46875 270.007812 214.339844 Z M 270.007812 214.339844 "/>
</g>
</svg>
